HIERARCHY
ROOT hip
{
  OFFSET 0.00112043 5.09927 -9.65472
  CHANNELS 6 Xposition Yposition Zposition Zrotation Xrotation Yrotation
  JOINT abdomen
  {
    OFFSET 0 -1.186 -1.5018
    CHANNELS 3 Zrotation Xrotation Yrotation
    JOINT abdomen2
    {
      OFFSET 0 9.964 0.2134
      CHANNELS 3 Zrotation Xrotation Yrotation
      JOINT chest
      {
        OFFSET 0 13.134 -3.2573
        CHANNELS 3 Zrotation Xrotation Yrotation
        JOINT neck
        {
          OFFSET 0 20.686 -1.6905
          CHANNELS 3 Zrotation Xrotation Yrotation
          JOINT head
          {
            OFFSET 0 7.238 -0.1237
            CHANNELS 3 Zrotation Xrotation Yrotation
            End Site
            {
              OFFSET 0 0 0
            }
          }
        }
        JOINT lCollar
        {
          OFFSET 1.7069 20.075 5.0056
          CHANNELS 3 Zrotation Xrotation Yrotation
          JOINT lShldr
          {
            OFFSET 13.6458 -0.047 -4.849
            CHANNELS 3 Zrotation Xrotation Yrotation
            JOINT lForeArm
            {
              OFFSET 28.3255 -0.9759 2.2888
              CHANNELS 3 Zrotation Xrotation Yrotation
              JOINT lHand
              {
                OFFSET 22.1583 -0.53 10.8316
                CHANNELS 3 Zrotation Xrotation Yrotation
                JOINT lThumb1
                {
                  OFFSET 0.786 0.112 2.5817
                  CHANNELS 3 Zrotation Xrotation Yrotation
                  JOINT lThumb2
                  {
                    OFFSET 0.3601 -0.878 4.2331
                    CHANNELS 3 Zrotation Xrotation Yrotation
                    JOINT lThumb2_End
                    {
                      OFFSET 1.8127 -1.216 2.2227
                      CHANNELS 3 Zrotation Xrotation Yrotation
                      End Site
                      {
                        OFFSET 0.0181 -0.0122 0.0222
                      }
                    }
                  }
                }
                JOINT lCarpal1
                {
                  OFFSET 0.9571 1.114 1.7695
                  CHANNELS 3 Zrotation Xrotation Yrotation
                  JOINT lIndex1
                  {
                    OFFSET 4.1246 0.487 4.1451
                    CHANNELS 3 Zrotation Xrotation Yrotation
                    JOINT lIndex2
                    {
                      OFFSET 3.4052 -1.454 2.7682
                      CHANNELS 3 Zrotation Xrotation Yrotation
                      JOINT lIndex2_End
                      {
                        OFFSET 1.4531 -1.795 1.2713
                        CHANNELS 3 Zrotation Xrotation Yrotation
                        End Site
                        {
                          OFFSET 0.0145 -0.0179 0.0127
                        }
                      }
                    }
                  }
                  JOINT lMid1
                  {
                    OFFSET 5.6954 0.21 2.1184
                    CHANNELS 3 Zrotation Xrotation Yrotation
                    JOINT lMid2
                    {
                      OFFSET 3.9766 -1.54 2.3863
                      CHANNELS 3 Zrotation Xrotation Yrotation
                      JOINT lMid2_End
                      {
                        OFFSET 1.4042 -1.926 1.125
                        CHANNELS 3 Zrotation Xrotation Yrotation
                        End Site
                        {
                          OFFSET 0.014 -0.0193 0.0113
                        }
                      }
                    }
                  }
                }
                JOINT lCarpal2
                {
                  OFFSET 2.0956 0.66 -0.3894
                  CHANNELS 3 Zrotation Xrotation Yrotation
                  JOINT lRing1
                  {
                    OFFSET 5.0395 -0.09 2.4971
                    CHANNELS 3 Zrotation Xrotation Yrotation
                    JOINT lRing2
                    {
                      OFFSET 3.7921 -1.552 1.4806
                      CHANNELS 3 Zrotation Xrotation Yrotation
                      JOINT lRing2_End
                      {
                        OFFSET 1.4655 -1.808 0.9609
                        CHANNELS 3 Zrotation Xrotation Yrotation
                        End Site
                        {
                          OFFSET 0.0147 -0.0181 0.0096
                        }
                      }
                    }
                  }
                  JOINT lPinky1
                  {
                    OFFSET 4.9141 -1.269 0.3591
                    CHANNELS 3 Zrotation Xrotation Yrotation
                    JOINT lPinky2
                    {
                      OFFSET 3.1477 -1.685 0.8462
                      CHANNELS 3 Zrotation Xrotation Yrotation
                      JOINT lPinky2_End
                      {
                        OFFSET 0.8055 -1.585 0.7955
                        CHANNELS 3 Zrotation Xrotation Yrotation
                        End Site
                        {
                          OFFSET 0.0081 -0.0158 0.008
                        }
                      }
                    }
                  }
                }
              }
            }
          }
        }
        JOINT rCollar
        {
          OFFSET -1.7069 20.075 5.0056
          CHANNELS 3 Zrotation Xrotation Yrotation
          JOINT rShldr
          {
            OFFSET -13.6458 -0.047 -4.849
            CHANNELS 3 Zrotation Xrotation Yrotation
            JOINT rForeArm
            {
              OFFSET -28.3255 -0.9759 2.2888
              CHANNELS 3 Zrotation Xrotation Yrotation
              JOINT rHand
              {
                OFFSET -22.1583 -0.53 10.8316
                CHANNELS 3 Zrotation Xrotation Yrotation
                JOINT rThumb1
                {
                  OFFSET -0.786 0.112 2.5817
                  CHANNELS 3 Zrotation Xrotation Yrotation
                  JOINT rThumb2
                  {
                    OFFSET -0.3601 -0.878 4.2331
                    CHANNELS 3 Zrotation Xrotation Yrotation
                    JOINT rThumb2_End
                    {
                      OFFSET -1.8127 -1.216 2.2227
                      CHANNELS 3 Zrotation Xrotation Yrotation
                      End Site
                      {
                        OFFSET -0.0181 -0.0122 0.0222
                      }
                    }
                  }
                }
                JOINT rCarpal1
                {
                  OFFSET -0.9571 1.114 1.7695
                  CHANNELS 3 Zrotation Xrotation Yrotation
                  JOINT rIndex1
                  {
                    OFFSET -4.1246 0.487 4.1451
                    CHANNELS 3 Zrotation Xrotation Yrotation
                    JOINT rIndex2
                    {
                      OFFSET -3.4052 -1.454 2.7682
                      CHANNELS 3 Zrotation Xrotation Yrotation
                      JOINT rIndex2_End
                      {
                        OFFSET -1.4531 -1.795 1.2713
                        CHANNELS 3 Zrotation Xrotation Yrotation
                        End Site
                        {
                          OFFSET -0.0145 -0.018 0.0127
                        }
                      }
                    }
                  }
                  JOINT rMid1
                  {
                    OFFSET -5.6954 0.21 2.1184
                    CHANNELS 3 Zrotation Xrotation Yrotation
                    JOINT rMid2
                    {
                      OFFSET -3.9766 -1.54 2.3863
                      CHANNELS 3 Zrotation Xrotation Yrotation
                      JOINT rMid2_End
                      {
                        OFFSET -1.4042 -1.926 1.125
                        CHANNELS 3 Zrotation Xrotation Yrotation
                        End Site
                        {
                          OFFSET -0.014 -0.0193 0.0113
                        }
                      }
                    }
                  }
                }
                JOINT rCarpal2
                {
                  OFFSET -2.0956 0.66 -0.3894
                  CHANNELS 3 Zrotation Xrotation Yrotation
                  JOINT rRing1
                  {
                    OFFSET -5.0395 -0.09 2.4971
                    CHANNELS 3 Zrotation Xrotation Yrotation
                    JOINT rRing2
                    {
                      OFFSET -3.7921 -1.552 1.4806
                      CHANNELS 3 Zrotation Xrotation Yrotation
                      JOINT rRing2_End
                      {
                        OFFSET -1.4655 -1.808 0.9609
                        CHANNELS 3 Zrotation Xrotation Yrotation
                        End Site
                        {
                          OFFSET -0.0147 -0.0181 0.0096
                        }
                      }
                    }
                  }
                  JOINT rPinky1
                  {
                    OFFSET -4.9141 -1.269 0.3592
                    CHANNELS 3 Zrotation Xrotation Yrotation
                    JOINT rPinky2
                    {
                      OFFSET -3.1477 -1.685 0.8462
                      CHANNELS 3 Zrotation Xrotation Yrotation
                      JOINT rPinky2_End
                      {
                        OFFSET -0.8055 -1.585 0.7955
                        CHANNELS 3 Zrotation Xrotation Yrotation
                        End Site
                        {
                          OFFSET -0.0081 -0.0158 0.008
                        }
                      }
                    }
                  }
                }
              }
            }
          }
        }
      }
    }
  }
  JOINT lThigh
  {
    OFFSET 8.367 -8.2066 0.5982
    CHANNELS 3 Zrotation Xrotation Yrotation
    JOINT lShin
    {
      OFFSET 2.1923 -43.463 -0.4932
      CHANNELS 3 Zrotation Xrotation Yrotation
      JOINT lFoot
      {
        OFFSET 0.7333 -45.8593 -2.6451
        CHANNELS 3 Zrotation Xrotation Yrotation
        End Site
        {
          OFFSET 2.6618 -4.2699 12.3931
        }
      }
    }
  }
  JOINT rThigh
  {
    OFFSET -8.367 -8.2066 0.5982
    CHANNELS 3 Zrotation Xrotation Yrotation
    JOINT rShin
    {
      OFFSET -2.1923 -43.463 -0.4931
      CHANNELS 3 Zrotation Xrotation Yrotation
      JOINT rFoot
      {
        OFFSET -0.7333 -45.8593 -2.6451
        CHANNELS 3 Zrotation Xrotation Yrotation
        End Site
        {
          OFFSET -2.6618 -4.2699 12.3931
        }
      }
    }
  }
}
MOTION
Frames:	6
Frame Time:	0.0333333
0 91.7903 2.51682 0 0 -0 0 0 -0 0 0 -0 0 0 -0 0 0 -0 0 0 -0 0 0 -0 1.66051 0.0835086 5.75766 -0.0175111 0.895433 15.7816 7.95139e-016 -1.98785e-016 -0 5.46658e-016 -3.97569e-016 -0 5.96354e-016 0 -0 3.97569e-016 1.98785e-016 9.54166e-015 1.49089e-016 -3.97569e-016 -0 6.4605e-016 0 3.18055e-015 5.96354e-016 0 3.18055e-015 8.94531e-016 -1.98785e-016 6.36111e-015 6.4605e-016 0 3.18055e-015 5.96354e-016 0 3.18055e-015 8.94531e-016 -1.98785e-016 6.36111e-015 1.49089e-016 -3.97569e-016 -0 6.4605e-016 0 3.18055e-015 5.96354e-016 0 3.18055e-015 8.94531e-016 -1.98785e-016 6.36111e-015 6.4605e-016 0 3.18055e-015 5.96354e-016 0 3.18055e-015 8.94531e-016 -1.98785e-016 6.36111e-015 0 0 -0 -1.4496 0.0636048 -5.0245 -1.74811 1.20616 -16.8394 -1.19271e-015 1.98785e-016 -3.18055e-015 -3.97569e-016 1.98785e-016 -3.18055e-015 -2.98177e-016 1.98785e-016 -3.18055e-015 -2.98177e-016 3.97569e-016 -0 4.96962e-016 0 -6.36111e-015 -9.93923e-017 3.97569e-016 -0 -8.94531e-016 5.96354e-016 -0 -3.97569e-016 3.97569e-016 -0 -9.93923e-017 3.97569e-016 -0 -8.94531e-016 5.96354e-016 -0 -3.97569e-016 3.97569e-016 -0 4.96962e-016 0 -6.36111e-015 -9.93923e-017 3.97569e-016 -0 -8.94531e-016 5.96354e-016 -0 -3.97569e-016 3.97569e-016 -0 -9.93923e-017 3.97569e-016 -0 -8.94531e-016 5.96354e-016 -0 -3.97569e-016 3.97569e-016 -0 -4.66111 -0.998717 0.12318 0.00986924 1.54847 0.176523 4.65186 -0.572283 -0.254274 4.66111 -0.998765 -0.123176 -0.00986867 1.54869 -0.176537 -4.65186 -0.572453 0.25427 
45.8655 32.6959 38.222 168.754 54.1919 -5.0937e-008 -0.182303 -1.53533 0.146206 -0.360887 -3.07109 0.287674 -0.360885 -3.07108 0.287677 1.40578e-005 16.993 8.10501e-006 -1.95067e-006 12.239 1.08854e-006 6.54473 1.57062 19.1285 -22.5914 60.6461 41.1545 41.9363 42.2881 -65.4084 -0.0430015 -1.28203 8.76606 -5.11745e-007 -1.29453e-007 7.80847e-008 1.59028e-015 0 1.90833e-014 -5.11745e-007 -1.29453e-007 7.80847e-008 -7.06225e-031 6.36111e-015 6.36111e-015 -5.11745e-007 -1.29453e-007 7.80847e-008 3.18055e-015 -4.77083e-015 1.59028e-014 -5.11745e-007 -1.29453e-007 7.80847e-008 -5.11745e-007 -1.29453e-007 7.80847e-008 3.18055e-015 -4.77083e-015 1.59028e-014 -5.11745e-007 -1.29453e-007 7.80847e-008 -7.06225e-031 6.36111e-015 6.36111e-015 -5.11745e-007 -1.29453e-007 7.80847e-008 3.18055e-015 -4.77083e-015 1.59028e-014 -5.11745e-007 -1.29453e-007 7.80847e-008 -5.11745e-007 -1.29453e-007 7.80847e-008 3.18055e-015 -4.77083e-015 1.59028e-014 -5.11745e-007 -1.29453e-007 7.80847e-008 -6.56284 1.57164 -19.1402 22.9257 60.5 -40.7177 -42.3898 41.2615 64.785 0.0321271 -1.03891 -8.79538 -5.6806e-007 -4.08732e-007 2.87387e-006 -1.6189e-006 3.13123e-007 3.31735e-007 -7.00495e-007 -3.07893e-007 9.90246e-007 -1.59028e-015 -3.18055e-015 -3.18055e-015 -5.6806e-007 -4.08732e-007 2.87387e-006 -1.6189e-006 3.13123e-007 3.31735e-007 -7.00495e-007 -3.07893e-007 9.90246e-007 -5.6806e-007 -4.08732e-007 2.87387e-006 -1.6189e-006 3.13123e-007 3.31735e-007 -7.00495e-007 -3.07893e-007 9.90246e-007 -1.59028e-015 -3.18055e-015 -3.18055e-015 -5.6806e-007 -4.08732e-007 2.87387e-006 -1.6189e-006 3.13123e-007 3.31735e-007 -7.00495e-007 -3.07893e-007 9.90246e-007 -5.6806e-007 -4.08732e-007 2.87387e-006 -1.6189e-006 3.13123e-007 3.31735e-007 -7.00495e-007 -3.07893e-007 9.90246e-007 39.5206 32.4082 31.472 71.3544 36.8741 -68.7343 -17.9251 22.3105 -11.5963 -39.894 33.8505 -30.9208 -68.6545 36.1812 66.4441 18.1337 23.2646 11.6858 
42.3069 34.9142 37.1824 -179.996 51.0054 8.95158e-011 -0.170621 -1.55055 0.138719 -0.337671 -3.10146 0.272967 -0.337671 -3.10146 0.272967 -5.23898e-006 15.9934 4.90573e-006 -3.96534e-008 13.5395 6.37217e-008 6.29657 1.64612 18.4585 -17.429 57.9348 35.9099 37.2695 44.0451 -59.977 0.0641513 -0.823357 7.98295 1.96217e-006 -1.27543e-006 -5.58847e-007 -4.77083e-015 0 -3.18055e-015 8.094e-007 1.71686e-007 -1.91122e-007 -1.59028e-015 0 -3.18055e-015 1.96217e-006 -1.27543e-006 -5.58847e-007 1.59028e-015 3.18055e-015 6.36111e-015 8.094e-007 1.71686e-007 -1.91122e-007 1.96217e-006 -1.27543e-006 -5.58847e-007 1.59028e-015 3.18055e-015 6.36111e-015 8.094e-007 1.71686e-007 -1.91122e-007 -1.59028e-015 0 -3.18055e-015 1.96217e-006 -1.27543e-006 -5.58847e-007 1.59028e-015 3.18055e-015 6.36111e-015 8.094e-007 1.71686e-007 -1.91122e-007 1.96217e-006 -1.27543e-006 -5.58847e-007 1.59028e-015 3.18055e-015 6.36111e-015 8.094e-007 1.71686e-007 -1.91122e-007 -6.30041 1.6345 -18.4446 17.7905 57.7974 -35.4992 -37.8683 43.0293 59.4449 -0.0740118 -0.589979 -8.01407 -1.20043e-006 -1.68708e-006 -9.01265e-007 -1.59798e-006 -1.49771e-007 -3.05932e-006 -2.10604e-006 -5.92108e-008 -2.48287e-006 -3.53113e-031 3.18055e-015 6.36111e-015 -1.20043e-006 -1.68708e-006 -9.01265e-007 -1.59798e-006 -1.49771e-007 -3.05932e-006 -2.10604e-006 -5.92108e-008 -2.48287e-006 -1.20043e-006 -1.68708e-006 -9.01265e-007 -1.59798e-006 -1.49771e-007 -3.05932e-006 -2.10604e-006 -5.92108e-008 -2.48287e-006 -3.53113e-031 3.18055e-015 6.36111e-015 -1.20043e-006 -1.68708e-006 -9.01265e-007 -1.59798e-006 -1.49771e-007 -3.05932e-006 -2.10604e-006 -5.92108e-008 -2.48287e-006 -1.20043e-006 -1.68708e-006 -9.01265e-007 -1.59798e-006 -1.49771e-007 -3.05932e-006 -2.10604e-006 -5.92108e-008 -2.48287e-006 38.8546 31.2089 29.4974 64.4161 37.6818 -63.3762 -15.412 21.1952 -12.3815 -38.7522 31.4104 -29.6871 -63.8787 37.3589 63.0643 15.276 21.4575 12.1721 
42.3036 34.9166 37.1801 -179.996 51.0054 8.95158e-011 -0.171139 -1.65041 0.137806 -0.338515 -3.30121 0.270847 -0.338515 -3.3012 0.270847 -7.71604e-006 15.9925 1.3294e-006 1.625e-008 15.4529 1.70312e-008 6.39717 1.79628 18.8889 -17.4005 57.9418 35.8754 37.2695 44.0451 -59.977 0.174756 -0.464774 7.72953 1.93898e-007 -1.81658e-006 2.03853e-006 3.18055e-015 -3.18055e-015 -6.36111e-015 -1.93898e-007 1.81658e-006 -2.03853e-006 3.18055e-015 0 -6.36111e-015 1.93898e-007 -1.81658e-006 2.03853e-006 -1.59028e-015 -3.18055e-015 -0 -1.93898e-007 1.81658e-006 -2.03853e-006 1.93898e-007 -1.81658e-006 2.03853e-006 -1.59028e-015 -3.18055e-015 -0 -1.93898e-007 1.81658e-006 -2.03853e-006 3.18055e-015 0 -6.36111e-015 1.93898e-007 -1.81658e-006 2.03853e-006 -1.59028e-015 -3.18055e-015 -0 -1.93898e-007 1.81658e-006 -2.03853e-006 1.93898e-007 -1.81658e-006 2.03853e-006 -1.59028e-015 -3.18055e-015 -0 -1.93898e-007 1.81658e-006 -2.03853e-006 -6.38863 1.77263 -18.8516 17.7905 57.7974 -35.4992 -37.8683 43.0293 59.4449 -0.183257 -0.227129 -7.76406 -9.98662e-007 -1.72617e-006 -1.82869e-006 -4.0213e-007 1.32602e-006 -2.14448e-006 -1.8116e-006 -1.57294e-006 -1.63147e-006 -1.76556e-031 3.18055e-015 3.18055e-015 -9.98662e-007 -1.72617e-006 -1.82869e-006 -4.0213e-007 1.32602e-006 -2.14448e-006 -1.8116e-006 -1.57294e-006 -1.63147e-006 -9.98662e-007 -1.72617e-006 -1.82869e-006 -4.0213e-007 1.32602e-006 -2.14448e-006 -1.8116e-006 -1.57294e-006 -1.63147e-006 -1.76556e-031 3.18055e-015 3.18055e-015 -9.98662e-007 -1.72617e-006 -1.82869e-006 -4.0213e-007 1.32602e-006 -2.14448e-006 -1.8116e-006 -1.57294e-006 -1.63147e-006 -9.98662e-007 -1.72617e-006 -1.82869e-006 -4.0213e-007 1.32602e-006 -2.14448e-006 -1.8116e-006 -1.57294e-006 -1.63147e-006 39.6084 30.9624 29.9433 64.4203 37.6838 -63.3967 -14.4637 21.344 -13.3634 -39.8075 31.0676 -30.2346 -63.882 37.3611 63.0893 13.9401 21.6489 13.5463 
42.3004 34.9191 37.1778 -179.996 51.0054 8.95158e-011 -0.171657 -1.75048 0.136888 -0.339365 -3.50136 0.268715 -0.339365 -3.50136 0.268715 -5.22109e-007 15.9934 -4.97227e-007 -4.4332e-008 17.3704 2.16828e-008 6.49665 1.94722 19.3192 -17.372 57.9488 35.8409 37.2695 44.0451 -59.977 0.286956 -0.106626 7.47542 6.19004e-007 2.0139e-006 -2.17505e-006 -2.94036e-007 -2.88509e-007 1.98392e-006 4.51492e-007 1.7928e-006 -1.54728e-008 3.18055e-015 0 -6.36111e-015 6.19004e-007 2.0139e-006 -2.17505e-006 -2.94036e-007 -2.88509e-007 1.98392e-006 4.51492e-007 1.7928e-006 -1.54728e-008 6.19004e-007 2.0139e-006 -2.17505e-006 -2.94036e-007 -2.88509e-007 1.98392e-006 4.51492e-007 1.7928e-006 -1.54728e-008 3.18055e-015 0 -6.36111e-015 6.19004e-007 2.0139e-006 -2.17505e-006 -2.94036e-007 -2.88509e-007 1.98392e-006 4.51492e-007 1.7928e-006 -1.54728e-008 6.19004e-007 2.0139e-006 -2.17505e-006 -2.94036e-007 -2.88509e-007 1.98392e-006 4.51492e-007 1.7928e-006 -1.54728e-008 -6.47589 1.9114 -19.2585 17.7905 57.7974 -35.4992 -37.8683 43.0293 59.4449 -0.294091 0.135293 -7.51332 -1.44098e-006 7.843e-008 -5.74119e-007 -6.36111e-015 3.18055e-015 6.36111e-015 -9.95073e-007 3.90561e-007 1.16942e-006 -1.59028e-015 6.36111e-015 3.18055e-015 -1.44098e-006 7.843e-008 -5.74119e-007 -4.77083e-015 6.36111e-015 6.36111e-015 -9.95073e-007 3.90561e-007 1.16942e-006 -1.44098e-006 7.843e-008 -5.74119e-007 -4.77083e-015 6.36111e-015 6.36111e-015 -9.95073e-007 3.90561e-007 1.16942e-006 -1.59028e-015 6.36111e-015 3.18055e-015 -1.44098e-006 7.843e-008 -5.74119e-007 -4.77083e-015 6.36111e-015 6.36111e-015 -9.95073e-007 3.90561e-007 1.16942e-006 -1.44098e-006 7.843e-008 -5.74119e-007 -4.77083e-015 6.36111e-015 6.36111e-015 -9.95073e-007 3.90561e-007 1.16942e-006 40.3632 30.721 30.3919 64.4244 37.6859 -63.4176 -13.5115 21.4776 -14.3491 -40.8642 30.7331 -30.788 -63.885 37.3633 63.1145 12.5963 21.811 14.9279 
42.2972 34.9217 37.1753 -179.996 51.0054 8.95158e-011 -0.172175 -1.85071 0.135966 -0.340219 -3.70177 0.266573 -0.340219 -3.70179 0.266573 -1.19392e-005 15.9926 4.49117e-006 -7.5373e-008 19.2907 -2.67312e-007 6.59502 2.09886 19.7493 -17.3434 57.9559 35.8064 37.2695 44.0451 -59.977 0.400751 0.251047 7.22058 6.55591e-007 4.76809e-007 -1.51206e-006 -2.79869e-008 -5.38204e-007 3.4202e-006 1.14527e-007 2.15643e-006 -3.87929e-006 1.59028e-015 6.36111e-015 -0 6.55591e-007 4.76809e-007 -1.51206e-006 -2.79869e-008 -5.38204e-007 3.4202e-006 1.14527e-007 2.15643e-006 -3.87929e-006 6.55591e-007 4.76809e-007 -1.51206e-006 -2.79869e-008 -5.38204e-007 3.4202e-006 1.14527e-007 2.15643e-006 -3.87929e-006 1.59028e-015 6.36111e-015 -0 6.55591e-007 4.76809e-007 -1.51206e-006 -2.79869e-008 -5.38204e-007 3.4202e-006 1.14527e-007 2.15643e-006 -3.87929e-006 6.55591e-007 4.76809e-007 -1.51206e-006 -2.79869e-008 -5.38204e-007 3.4202e-006 1.14527e-007 2.15643e-006 -3.87929e-006 -6.56219 2.05076 -19.6652 17.7905 57.7974 -35.4992 -37.8683 43.0293 59.4449 -0.406529 0.497254 -7.26187 -4.79713e-007 1.31762e-006 -3.39658e-006 -8.11078e-007 1.59451e-007 1.99654e-007 -7.98615e-007 -3.04539e-007 -3.24431e-006 -0 -6.36111e-015 -0 -4.79713e-007 1.31762e-006 -3.39658e-006 -8.11078e-007 1.59451e-007 1.99654e-007 -7.98615e-007 -3.04539e-007 -3.24431e-006 -4.79713e-007 1.31762e-006 -3.39658e-006 -8.11078e-007 1.59451e-007 1.99654e-007 -7.98615e-007 -3.04539e-007 -3.24431e-006 -0 -6.36111e-015 -0 -4.79713e-007 1.31762e-006 -3.39658e-006 -8.11078e-007 1.59451e-007 1.99654e-007 -7.98615e-007 -3.04539e-007 -3.24431e-006 -4.79713e-007 1.31762e-006 -3.39658e-006 -8.11078e-007 1.59451e-007 1.99654e-007 -7.98615e-007 -3.04539e-007 -3.24431e-006 41.1188 30.4847 30.843 64.4283 37.6879 -63.4385 -12.5558 21.5962 -15.3381 -41.9221 30.4073 -31.347 -63.888 37.3655 63.1403 11.2461 21.9432 16.3152 
